<?xml version="1.0" standalone="no"?>
<!DOCTYPE svg PUBLIC "-//W3C//DTD SVG 20010904//EN"
 "http://www.w3.org/TR/2001/REC-SVG-20010904/DTD/svg10.dtd">
<svg version="1.0" xmlns="http://www.w3.org/2000/svg"
 width="185.000000pt" height="185.000000pt" viewBox="0 0 185.000000 185.000000"
 preserveAspectRatio="xMidYMid meet">
<metadata>
Created by potrace 1.11, written by Peter Selinger 2001-2013
</metadata>
<g transform="translate(0.000000,185.000000) scale(0.100000,-0.100000)"
fill="#000000" stroke="none">
<path d="M823 1646 c-91 -30 -157 -89 -198 -177 -14 -32 -26 -73 -27 -92 -1
-34 -1 -34 -35 -25 -78 21 -171 -19 -212 -92 -21 -38 -30 -107 -17 -146 5 -16
1 -19 -25 -20 -66 -2 -113 -63 -104 -134 5 -43 4 -46 -27 -59 -49 -22 -107
-79 -136 -135 -25 -48 -27 -59 -26 -181 0 -105 4 -139 20 -177 30 -73 89 -137
153 -166 l56 -26 690 0 690 0 57 28 c64 30 116 86 146 157 16 37 20 71 21 175
1 117 -1 134 -23 179 -28 59 -73 106 -134 142 -36 21 -42 30 -37 47 4 12 8 55
10 96 4 92 -18 157 -76 223 -59 68 -133 101 -228 101 -42 1 -88 -2 -102 -6
-25 -7 -27 -6 -33 40 -12 94 -91 193 -185 235 -57 25 -162 31 -218 13z"/>
<path d="M1512 1596 c1 -10 8 -17 13 -17 15 1 12 24 -3 29 -9 3 -13 -2 -10
-12z"/>
<path d="M1329 1588 c-54 -18 -59 -101 -9 -128 46 -24 110 14 110 66 0 23 -38
66 -61 69 -8 1 -26 -2 -40 -7z"/>
<path d="M1467 1483 c-10 -9 -8 -35 2 -52 12 -18 51 3 51 28 0 24 -37 41 -53
24z"/>
</g>
</svg>
